<svg id="b5d9d0c8-845b-4aff-815b-8f658d0440a8" data-name="Layer 1" xmlns="http://www.w3.org/2000/svg" viewBox="0 0 202 88"><defs><style>.bf58f30a-4910-420a-854d-100937073f7e{fill:#6d6f70;}.bd761f29-8a9c-440c-bdc3-2c97088411b9{fill:#d5dd26;}.edf3ffdc-492e-46c7-bcfb-7af9ae7e6370{fill:#003141;}.bda09998-95e4-4ba4-b5dc-4d192279c549{fill:#016d7d;}</style></defs><polygon class="bf58f30a-4910-420a-854d-100937073f7e" points="8 61.092 8 27.118 14.633 27.118 14.633 55.173 30.043 55.173 30.043 61.092 8 61.092"/><path class="bf58f30a-4910-420a-854d-100937073f7e" d="M99.2944,57.5107a12.2536,12.2536,0,0,1-9.5912,3.865,12.25,12.25,0,0,1-9.0641-3.5777c-3.3892-3.3872-3.4376-7.2058-3.4376-13.6928,0-6.4893.0484-10.3068,3.4376-13.696a12.2458,12.2458,0,0,1,9.0641-3.5766c7.9213,0,11.8819,5.1517,12.7879,10.879H95.8105c-.7629-3.246-2.7181-4.9623-6.1073-4.9623a5.5891,5.5891,0,0,0-4.2458,1.812c-1.2406,1.4311-1.6236,3.0546-1.6236,9.5439,0,6.487.383,8.1571,1.6236,9.589A5.5545,5.5545,0,0,0,89.7032,55.46a6.099,6.099,0,0,0,4.7246-1.9079,6.544,6.544,0,0,0,1.5268-4.532V47.7785H89.7032V42.1954h12.8353v4.9623c0,4.9161-.7639,7.7782-3.2441,10.353"/><path class="bf58f30a-4910-420a-854d-100937073f7e" d="M130.5988,57.7975a13.3319,13.3319,0,0,1-18.1786,0c-3.3892-3.3862-3.4366-7.2056-3.4366-13.6928,0-6.4893.0474-10.3068,3.4366-13.6949a13.3347,13.3347,0,0,1,18.1786,0c3.3872,3.3881,3.4829,7.2056,3.4829,13.6949,0,6.4872-.0957,10.3066-3.4829,13.6928m-4.82-23.2367a5.5156,5.5156,0,0,0-4.2458-1.812,5.7,5.7,0,0,0-4.2942,1.812c-1.2406,1.4321-1.6216,3.0546-1.6216,9.5439,0,6.4872.381,8.0633,1.6216,9.4964a5.7324,5.7324,0,0,0,4.2942,1.8594,5.547,5.547,0,0,0,4.2458-1.8594c1.2426-1.4331,1.672-3.0092,1.672-9.4964,0-6.4893-.4294-8.1118-1.672-9.5439"/><path class="bf58f30a-4910-420a-854d-100937073f7e" d="M154.3033,48.3029h-6.54v12.789h-6.6292V27.1181h13.1688c7.0606,0,11.2117,4.82,11.2117,10.593s-4.1511,10.5918-11.2117,10.5918m-.3356-15.2691h-6.204v9.305h6.204c3.0073,0,4.914-1.86,4.914-4.6277s-1.9067-4.6773-4.914-4.6773"/><path class="bf58f30a-4910-420a-854d-100937073f7e" d="M181.4026,61.3761c-5.1519,0-9.0651-1.0975-12.406-4.4837l4.2963-4.2952c2.1456,2.1467,5.0561,2.8631,8.1571,2.8631,3.9616,0,6.06-1.5278,6.06-4.2468a3.799,3.799,0,0,0-1.05-2.8128,4.8293,4.8293,0,0,0-3.0516-1.1468l-4.0574-.6207a11.2487,11.2487,0,0,1-6.5849-2.8149,8.9088,8.9088,0,0,1-2.4318-6.68c0-6.06,4.4847-10.3067,11.8315-10.3067,4.6761,0,8.0654,1.1459,10.9759,3.9606l-4.2005,4.1512c-2.0993-2.0529-4.7235-2.3382-6.9639-2.3382-3.5323,0-5.2022,1.9552-5.2022,4.2942a3.1626,3.1626,0,0,0,.9544,2.4329,5.5072,5.5072,0,0,0,3.101,1.2879l4.0563.6209c3.099.4292,5.01,1.24,6.4882,2.6726C193.1887,45.5819,194,48.0168,194,51.07c0,6.585-5.4391,10.3057-12.5974,10.3057"/><path class="bd761f29-8a9c-440c-bdc3-2c97088411b9" d="M47.177,33.7794l.0171-.0121,6.208,3.6684v6.8479l-6.2251-3.69Zm6.2251,17.3169L47.177,47.4088v6.8127l6.2251,3.6905ZM41.4285,57.6318V30.371l.0111-.006-5.7565-3.4013V61.0381L53.4,71.5414V64.7288Z"/><polygon class="edf3ffdc-492e-46c7-bcfb-7af9ae7e6370" points="65.366 30.365 65.374 30.371 65.374 44 53.403 51.097 53.403 57.911 65.374 50.813 65.374 57.632 53.403 64.728 53.401 64.728 53.401 71.541 71.121 61.039 71.121 26.964 65.366 30.365"/><polygon class="edf3ffdc-492e-46c7-bcfb-7af9ae7e6370" points="53.402 44.284 53.402 44.284 59.628 40.593 59.628 33.779 53.402 37.436 53.402 44.284"/><polygon class="bda09998-95e4-4ba4-b5dc-4d192279c549" points="53.402 23.273 65.366 30.365 71.12 26.964 53.4 16.459 35.682 26.964 41.44 30.365 53.402 23.273"/></svg>